<?xml version="1.0" encoding="utf-8"?>
<!-- Generator: Adobe Illustrator 27.6.1, SVG Export Plug-In . SVG Version: 6.00 Build 0)  -->
<svg version="1.1" id="Layer_1" xmlns="http://www.w3.org/2000/svg" xmlns:xlink="http://www.w3.org/1999/xlink" x="0px" y="0px"
	 viewBox="0 0 1280 232" style="enable-background:new 0 0 1280 232;" xml:space="preserve">
<style type="text/css">
	.st0{fill:#F36C23;}
</style>
<g>
	<path class="st0" d="M545.6,82.7c-3.4-1.2-24.2-2.1-24.2-2.1s15.1,14.6,18.4,15.6c2.6,0.8,6.6-0.5,8.3-4.4
		C549.7,88.3,548.5,83.7,545.6,82.7 M546.7,128.9c0.5-3.8-2-7.9-5.1-8.1c-3.6-0.1-23.7,5-23.7,5s18.7,9.6,22.1,9.6
		C542.7,135.5,546.1,133.2,546.7,128.9 M538.6,158.9c-3.4,1.3-19.9,13.9-19.9,13.9s21,1.6,24.1,0.2c2.5-1.1,4.8-4.5,3.6-8.7
		C545.4,160.6,541.5,157.8,538.6,158.9 M560.2,51.6c-3.3-1.5-23.9-4.4-23.9-4.4s13.6,16,16.8,17.3c2.5,1,6.6,0.2,8.7-3.5
		C563.6,57.7,563,52.9,560.2,51.6 M677.3,89.8c-5.7,0-10.3,2.7-10.3,6.1c0,3.4,4.6,6.1,10.3,6.1c5.7,0,10.3-2.7,10.3-6.1
		C687.6,92.6,683,89.8,677.3,89.8 M752.1,130.8c0.6,10.8-6.7,16.4-7.7,18.5c4.9-0.4,6.9,0.6,11.2,3
		C760.3,144.7,758.2,137.6,752.1,130.8"/>
	<path class="st0" d="M718.9,101c12.2-7.2,10.7-17.4,0.5-24.2c5.2-24.2-39.3-46-61.9-39.5C680.9,41.8,733.7,73.7,718.9,101
		 M708.7,96.3C684.5,80.6,671.2,71,652.4,81C676.4,79.8,687.5,101.6,708.7,96.3 M684.2,121.7c1.5-0.1,3-0.3,4.5-0.7
		c1.5-0.4,3.3-0.8,4.7-1.4c1.6-0.6,2.9-1.2,4.4-1.7c1.5-0.6,2.9-1.1,4.4-1.6c1.5-0.5,2.9-1,4.3-1.5c2.8-0.9,5.5-1.8,7.8-2.6
		c4.6-1.5,7.7-2.8,7.7-2.8s-3.3-0.4-8.2-0.1c-2.5,0.2-5.3,0.5-8.3,1.1c-3,0.6-6.2,1.4-9.4,2.6c-1.5,0.5-3.2,1.3-4.5,1.9
		c-1.5,0.7-2.7,1.2-4.1,1.7c-1.4,0.5-2.7,0.9-3.9,1.3c-1.3,0.4-2.5,0.7-3.6,0.9c-4.6,1-7.9,1.1-7.9,1.1s0.7,0.4,2.1,0.8
		c1.4,0.4,3.5,0.9,6,1C681.3,121.8,682.7,121.8,684.2,121.7 M657.6,166.1c-27.3,7.3-45.4,35.4-77.5,21.8
		c-26.2-11.1-31.8-35.1-16.1-58.3c0.6,2.2,1.3,4.5,2,6.7c-2.1-27.6,1.2-54.4,10.3-80.6c-14.4,22.1-18.8,48.6-12.3,73.8
		c-23,24.4-14.4,60.1,19.1,69.3c32.5,8.9,46.8-17,74.5-23c23-5,114.4-21.3,74.2-67.4C762.8,152.6,680.5,160,657.6,166.1
		 M550.5,201.2c0,0-17.4-7.5-20.5-13.8c-0.6-1.3,3.2,13.8,6.1,16.1c-22.4,5.3-44,16.3-68.4,9.3c35.4,23.4,62.9-4.2,99-10.8
		C561.2,200.9,555.8,200.7,550.5,201.2 M549.7,35.9c4.8-3.6,19.2-2.9,25.1-2.5c6.8,2.9,12.8,6.3,18.9,11.1
		c-3.7,17.2-5,27.6-0.7,32.3c1.1,1.3,11,1.7,14.1,0c15.2-8.5,22.5-23.5,26.5-29.1c-6.2,3.3-22.3,19.2-28.2,20.6c0,0-4,0.4-4.2,0
		c-6.7-16,8-50.1,22.4-48.2c4.8,4.9,18.6,10,22.3,12.9c-11-21.9-41.5-29.1-51.5,8.6c-15.4-22.6-55.3-31.4-81.6-25.6
		c15,5,29.6,7.4,43.8,11.3C553,29.4,548.6,36.8,549.7,35.9 M628.3,213.2c34.3,10.7,54.3-22.2,80.2-37.5
		C677.6,181.2,661.3,211.6,628.3,213.2 M573.9,204.7c14.8,10,27.9,11.5,48.4-0.1C606,205.6,594.8,218.9,573.9,204.7 M724.2,161.6
		c14.3-3,18.4-0.8,23.6,4.4c1.9,11.9-33.9,38.7-62.1,50.9c35.1,0.6,65.2-24.7,77-56.8C744.4,153.3,741.8,148.2,724.2,161.6"/>
	<path class="st0" d="M920.4,174.4v-16.8c0-8.2-4.3-14.3-12.9-18.3c8.6-3.8,12.9-10.5,12.9-20.2V108c0-16.8-13.9-25.2-41.6-25.2H788
		v116.8h90.8C906.5,199.6,920.4,191.2,920.4,174.4 M810.1,100.1h68.7c13.1,0,19.6,2.7,19.6,8v14.8c0,2.3-1.5,4.2-4.6,5.7
		c-3,1.5-7.6,2.2-13.5,2.2h-70.2V100.1z M810.1,148h69.9c6.2,0,10.8,0.7,13.9,2.2c3,1.4,4.6,3.4,4.6,5.8v18.4c0,5.3-6.5,8-19.6,8
		h-68.7V148z M1170.7,199.6h22.1v-47.5l74.5-69.4h-27.9l-57.7,53.4l-57.7-53.4h-28.2l75,69.4V199.6z M1049.4,199.6
		c27.8,0,41.6-8.3,41.6-24.9V108c0-16.8-13.9-25.2-41.6-25.2h-67c-27.8,0-41.6,8.4-41.6,25.2v66.4c0,16.8,13.9,25.2,41.6,25.2
		H1049.4z M962.8,174.4V108c0-5.3,6.5-8,19.6-8h67c13.1,0,19.6,2.7,19.6,8v66.7c0,5.1-6.5,7.6-19.6,7.6h-67
		C969.3,182.4,962.8,179.7,962.8,174.4"/>
	<path class="st0" d="M236.8,104.2l61.2,95.4h23.9L244.7,82.8h-16.1L151,199.6h23.6L236.8,104.2z M485.7,168.1v-53.4
		c0-21.2-16.1-31.9-48.3-31.9h-102v116.8h102C469.6,199.6,485.7,189.1,485.7,168.1 M357.5,100.1h80c17.5,0,26.2,4.9,26.2,14.6v53.4
		c0,9.5-8.7,14.3-26.2,14.3h-80V100.1z M145.2,174.4v-16.8c0-8.2-4.3-14.3-12.9-18.3c8.6-3.8,12.9-10.5,12.9-20.2V108
		c0-16.8-13.9-25.2-41.6-25.2H12.8v116.8h90.8C131.3,199.6,145.2,191.2,145.2,174.4 M34.8,100.1h68.7c13.1,0,19.6,2.7,19.6,8v14.8
		c0,2.3-1.5,4.2-4.6,5.7c-3,1.5-7.6,2.2-13.5,2.2H34.8V100.1z M34.8,148h69.9c6.2,0,10.8,0.7,13.9,2.2c3,1.4,4.6,3.4,4.6,5.8v18.4
		c0,5.3-6.5,8-19.6,8H34.8V148z"/>
</g>
</svg>
