<?xml version="1.0" encoding="UTF-8"?><svg id="Layer_2" xmlns="http://www.w3.org/2000/svg" viewBox="0 0 648 157.9"><defs><style>.cls-1{fill:#2e3f49;}</style></defs><g id="Layer_1-2"><path class="cls-1" d="M157.9,0h0s-157.9,0-157.9,0V157.9H648V0H157.9ZM90.58,22.33l-3.32,7.3v8.18h-16.61v-8.18l-3.32-7.3h23.26Zm-23.26,113.24l3.32-7.15v-63.05h16.61v63.05l3.32,7.15h-23.26Zm59.17-44.21v14.88l-8.31,8.31h-25.39v-16.88h15.24l1.85-1.98v-4.33l-2.24-6.33h20.96l-2.11,6.33Zm-18.85-18.76l2.24-6.33v-4.46l-1.85-1.98H47.89l-1.98,1.98v33.89l1.98,1.98h17.21v16.88h-27.37l-8.44-8.31V51.52l8.44-8.17H118.18l8.31,8.17v14.75l2.11,6.33h-20.96Zm532.84,77.77H157.9V7.53h482.58V150.37Z"/><g><path class="cls-1" d="M193.22,110.78h-13.15l1.34-4.02V51.22l-1.34-4.11h13.15l-1.34,4.11v55.54l1.34,4.02Z"/><path class="cls-1" d="M235.11,105.76l-3.94-17.76-.75-.92-4.02,2.43-1.26,1.17v15l1.34,5.11h-13.15l1.34-5.11V52.31l-1.34-5.19h27.81l5.36,5.19v22.87l-6.03,6.03,5.28,24.21,1.68,5.36h-13.24l.92-5.03Zm.67-34.51v-12.23l-1.26-1.17h-8.13l-1.26,1.17v17.76l.92,.84,8.46-5.19,1.26-1.17Z"/><path class="cls-1" d="M299.78,52.31v53.19l-5.28,5.28h-21.19l-5.36-5.28V52.31l5.36-5.19h21.19l5.28,5.19Zm-11.98,5.53h-8.04l-1.26,1.17v39.96l1.26,1.17h8.04l1.26-1.17V59.01l-1.26-1.17Z"/><path class="cls-1" d="M333.71,110.78h-13.15l1.34-4.02V51.22l-1.34-4.11h11.81l15.41,38.79V51.22l-1.34-4.11h13.32l-1.34,4.11v55.54l1.34,4.02h-11.98l-15.41-38.7v34.68l1.34,4.02Z"/><path class="cls-1" d="M378.7,111.14V46.67l5.36-5.19h23.04l5.28,5.19v10.72l1.34,4.02h-13.32l1.42-4.02v-4.19l-1.17-1.26h-10.14l-1.26,1.26v51.23l1.26,1.26h10.14l1.17-1.26v-4.1l-1.42-4.02h13.32l-1.34,4.02v10.81l-5.28,5.28h-23.04l-5.36-5.28Z"/><path class="cls-1" d="M452.26,105.76l-3.94-17.76-.75-.92-4.02,2.43-1.26,1.17v15l1.34,5.11h-13.15l1.34-5.11V52.31l-1.34-5.19h27.81l5.36,5.19v22.87l-6.03,6.03,5.28,24.21,1.68,5.36h-13.24l.92-5.03Zm.67-34.51v-12.23l-1.26-1.17h-8.13l-1.26,1.17v17.76l.92,.84,8.46-5.19,1.26-1.17Z"/><path class="cls-1" d="M521.79,110.78h-13.32l.92-2.51-3.27-13.57-1.42-1.51-9.38,4.36-1.51,1.51-2.09,9.21,.92,2.51h-13.32l2.09-4.27,12.98-55.71-1.17-3.69h14.58l-1.09,3.69,12.98,55.71,2.09,4.27Zm-24.29-25.47l5.28-2.51,1.09-.92-3.43-16.59-3.94,19.1,1.01,.92Z"/><path class="cls-1" d="M535.28,47.12h31.83l1.93,11.73-4.36-1.26h-16.34l-1.26,1.26v13.49l1.26,1.26h5.36l4.02-1.34v13.32l-4.02-1.34h-5.36l-1.26,1.17v21.28l1.34,4.1h-13.15l1.34-4.1V51.14l-1.34-4.02Z"/><path class="cls-1" d="M618.3,59.01l-4.52-1.17h-7.96l-1.17,1.17v47.75l1.34,4.02h-13.32l1.34-4.02V59.01l-1.26-1.17h-8.13l-4.36,1.17,1.93-11.9h34.09l2.01,11.9Z"/></g></g></svg>